<svg width="155" height="27" fill="none" xmlns="http://www.w3.org/2000/svg"><path d="M9.692 19.504c-2.712 0-4.98-.912-6.804-2.736-1.8-1.824-2.7-4.08-2.7-6.768 0-2.688.9-4.944 2.7-6.768C4.712 1.408 6.98.496 9.692.496c1.752 0 3.348.42 4.788 1.26 1.44.84 2.532 1.968 3.276 3.384L13.76 7.48a4.046 4.046 0 0 0-1.656-1.764c-.72-.432-1.536-.648-2.448-.648-1.392 0-2.544.468-3.456 1.404C5.288 7.384 4.832 8.56 4.832 10c0 1.416.456 2.592 1.368 3.528.912.912 2.064 1.368 3.456 1.368.936 0 1.764-.204 2.484-.612a4.046 4.046 0 0 0 1.656-1.764l4.032 2.304c-.792 1.416-1.908 2.556-3.348 3.42-1.44.84-3.036 1.26-4.788 1.26Zm25.647-2.736c-1.848 1.824-4.104 2.736-6.768 2.736-2.664 0-4.92-.912-6.768-2.736-1.824-1.848-2.736-4.104-2.736-6.768 0-2.664.912-4.908 2.736-6.732C23.65 1.42 25.907.496 28.57.496c2.664 0 4.92.924 6.768 2.772C37.187 5.092 38.11 7.336 38.11 10c0 2.664-.924 4.92-2.772 6.768Zm-10.26-3.204c.936.936 2.1 1.404 3.492 1.404s2.556-.468 3.492-1.404c.936-.936 1.404-2.124 1.404-3.564s-.468-2.628-1.404-3.564c-.936-.936-2.1-1.404-3.492-1.404s-2.556.468-3.492 1.404C24.167 7.372 23.71 8.56 23.71 10s.456 2.628 1.368 3.564ZM61.286.496c2.064 0 3.708.672 4.932 2.016 1.248 1.344 1.872 3.144 1.872 5.4V19h-4.644V8.236c0-1.08-.264-1.92-.792-2.52-.528-.6-1.272-.9-2.232-.9-1.056 0-1.884.348-2.484 1.044-.576.696-.864 1.704-.864 3.024V19H52.43V8.236c0-1.08-.264-1.92-.792-2.52-.528-.6-1.272-.9-2.232-.9-1.032 0-1.86.348-2.484 1.044-.6.696-.9 1.704-.9 3.024V19h-4.644V1h4.644v1.908C47.102 1.3 48.77.496 51.026.496c2.208 0 3.84.864 4.896 2.592C57.122 1.36 58.91.496 61.286.496Zm21.224 0c2.424 0 4.488.924 6.192 2.772C90.43 5.092 91.294 7.336 91.294 10c0 2.664-.864 4.92-2.592 6.768-1.704 1.824-3.768 2.736-6.192 2.736-2.52 0-4.464-.876-5.832-2.628V26.2h-4.644V1h4.644v2.124C78.046 1.372 79.99.496 82.51.496Zm-4.428 13.176c.936.936 2.124 1.404 3.564 1.404s2.628-.468 3.564-1.404c.96-.96 1.44-2.184 1.44-3.672s-.48-2.7-1.44-3.636c-.936-.96-2.124-1.44-3.564-1.44s-2.628.48-3.564 1.44c-.936.936-1.404 2.148-1.404 3.636s.468 2.712 1.404 3.672ZM108.25 1h4.644v18h-4.644v-2.124c-1.392 1.752-3.348 2.628-5.868 2.628-2.4 0-4.464-.912-6.192-2.736-1.704-1.848-2.556-4.104-2.556-6.768 0-2.664.852-4.908 2.556-6.732C97.917 1.42 99.981.496 102.381.496c2.52 0 4.476.876 5.868 2.628V1Zm-8.568 12.672c.936.936 2.124 1.404 3.564 1.404s2.628-.468 3.564-1.404c.96-.96 1.44-2.184 1.44-3.672s-.48-2.7-1.44-3.636c-.936-.96-2.124-1.44-3.564-1.44s-2.628.48-3.564 1.44c-.936.936-1.404 2.148-1.404 3.636s.468 2.712 1.404 3.672ZM127.112.496c1.968 0 3.588.66 4.86 1.98 1.296 1.32 1.944 3.144 1.944 5.472V19h-4.644V8.524c0-1.2-.324-2.112-.972-2.736-.648-.648-1.512-.972-2.592-.972-1.2 0-2.16.372-2.88 1.116-.72.744-1.08 1.86-1.08 3.348V19h-4.644V1h4.644v2.016c1.128-1.68 2.916-2.52 5.364-2.52ZM149.231 1h4.968l-6.552 18c-.936 2.592-2.184 4.464-3.744 5.616-1.536 1.176-3.456 1.704-5.76 1.584v-4.32c1.248.024 2.232-.24 2.952-.792.744-.552 1.332-1.44 1.764-2.664L135.479 1h5.076l4.68 12.096L149.231 1Z" fill="#14161B"/></svg>