<svg width="155" height="27" viewBox="0 0 155 27" fill="none" xmlns="http://www.w3.org/2000/svg">
<path d="M9.692 19.504C6.98 19.504 4.712 18.592 2.888 16.768C1.088 14.944 0.188 12.688 0.188 10C0.188 7.312 1.088 5.056 2.888 3.232C4.712 1.408 6.98 0.496 9.692 0.496C11.444 0.496 13.04 0.916 14.48 1.756C15.92 2.596 17.012 3.724 17.756 5.14L13.76 7.48C13.4 6.736 12.848 6.148 12.104 5.716C11.384 5.284 10.568 5.068 9.656 5.068C8.264 5.068 7.112 5.536 6.2 6.472C5.288 7.384 4.832 8.56 4.832 10C4.832 11.416 5.288 12.592 6.2 13.528C7.112 14.44 8.264 14.896 9.656 14.896C10.592 14.896 11.42 14.692 12.14 14.284C12.884 13.852 13.436 13.264 13.796 12.52L17.828 14.824C17.036 16.24 15.92 17.38 14.48 18.244C13.04 19.084 11.444 19.504 9.692 19.504ZM35.3389 16.768C33.4909 18.592 31.2349 19.504 28.5709 19.504C25.9069 19.504 23.6509 18.592 21.8029 16.768C19.9789 14.92 19.0669 12.664 19.0669 10C19.0669 7.336 19.9789 5.092 21.8029 3.268C23.6509 1.42 25.9069 0.496 28.5709 0.496C31.2349 0.496 33.4909 1.42 35.3389 3.268C37.1869 5.092 38.1109 7.336 38.1109 10C38.1109 12.664 37.1869 14.92 35.3389 16.768ZM25.0789 13.564C26.0149 14.5 27.1789 14.968 28.5709 14.968C29.9629 14.968 31.1269 14.5 32.0629 13.564C32.9989 12.628 33.4669 11.44 33.4669 10C33.4669 8.56 32.9989 7.372 32.0629 6.436C31.1269 5.5 29.9629 5.032 28.5709 5.032C27.1789 5.032 26.0149 5.5 25.0789 6.436C24.1669 7.372 23.7109 8.56 23.7109 10C23.7109 11.44 24.1669 12.628 25.0789 13.564ZM61.2859 0.496C63.3499 0.496 64.9939 1.168 66.2179 2.512C67.4659 3.856 68.0899 5.656 68.0899 7.912V19H63.4459V8.236C63.4459 7.156 63.1819 6.316 62.6539 5.716C62.1259 5.116 61.3819 4.816 60.4219 4.816C59.3659 4.816 58.5379 5.164 57.9379 5.86C57.3619 6.556 57.0739 7.564 57.0739 8.884V19H52.4299V8.236C52.4299 7.156 52.1659 6.316 51.6379 5.716C51.1099 5.116 50.3659 4.816 49.4059 4.816C48.3739 4.816 47.5459 5.164 46.9219 5.86C46.3219 6.556 46.0219 7.564 46.0219 8.884V19H41.3779V1H46.0219V2.908C47.1019 1.3 48.7699 0.496 51.0259 0.496C53.2339 0.496 54.8659 1.36 55.9219 3.088C57.1219 1.36 58.9099 0.496 61.2859 0.496ZM82.5102 0.496C84.9342 0.496 86.9982 1.42 88.7022 3.268C90.4302 5.092 91.2942 7.336 91.2942 10C91.2942 12.664 90.4302 14.92 88.7022 16.768C86.9982 18.592 84.9342 19.504 82.5102 19.504C79.9902 19.504 78.0462 18.628 76.6782 16.876V26.2H72.0342V1H76.6782V3.124C78.0462 1.372 79.9902 0.496 82.5102 0.496ZM78.0822 13.672C79.0182 14.608 80.2062 15.076 81.6462 15.076C83.0862 15.076 84.2742 14.608 85.2102 13.672C86.1702 12.712 86.6502 11.488 86.6502 10C86.6502 8.512 86.1702 7.3 85.2102 6.364C84.2742 5.404 83.0862 4.924 81.6462 4.924C80.2062 4.924 79.0182 5.404 78.0822 6.364C77.1462 7.3 76.6782 8.512 76.6782 10C76.6782 11.488 77.1462 12.712 78.0822 13.672ZM108.249 1H112.893V19H108.249V16.876C106.857 18.628 104.901 19.504 102.381 19.504C99.9813 19.504 97.9173 18.592 96.1893 16.768C94.4853 14.92 93.6333 12.664 93.6333 10C93.6333 7.336 94.4853 5.092 96.1893 3.268C97.9173 1.42 99.9813 0.496 102.381 0.496C104.901 0.496 106.857 1.372 108.249 3.124V1ZM99.6813 13.672C100.617 14.608 101.805 15.076 103.245 15.076C104.685 15.076 105.873 14.608 106.809 13.672C107.769 12.712 108.249 11.488 108.249 10C108.249 8.512 107.769 7.3 106.809 6.364C105.873 5.404 104.685 4.924 103.245 4.924C101.805 4.924 100.617 5.404 99.6813 6.364C98.7453 7.3 98.2773 8.512 98.2773 10C98.2773 11.488 98.7453 12.712 99.6813 13.672ZM127.112 0.496C129.08 0.496 130.7 1.156 131.972 2.476C133.268 3.796 133.916 5.62 133.916 7.948V19H129.272V8.524C129.272 7.324 128.948 6.412 128.3 5.788C127.652 5.14 126.788 4.816 125.708 4.816C124.508 4.816 123.548 5.188 122.828 5.932C122.108 6.676 121.748 7.792 121.748 9.28V19H117.104V1H121.748V3.016C122.876 1.336 124.664 0.496 127.112 0.496ZM149.231 1H154.199L147.647 19C146.711 21.592 145.463 23.464 143.903 24.616C142.367 25.792 140.447 26.32 138.143 26.2V21.88C139.391 21.904 140.375 21.64 141.095 21.088C141.839 20.536 142.427 19.648 142.859 18.424L135.479 1H140.555L145.235 13.096L149.231 1Z" fill="#14161B"/>
</svg>
