<svg width="154" height="29" viewBox="0 0 154 29" fill="none" xmlns="http://www.w3.org/2000/svg">
<path d="M11.1125 28.532C8.4525 28.532 6.21051 27.962 4.38651 26.822C2.56251 25.6567 1.2578 24.0353 0.472504 21.958L5.7165 18.918C6.7805 21.3753 8.64251 22.604 11.3025 22.604C13.7091 22.604 14.9125 21.882 14.9125 20.438C14.9125 19.6273 14.5198 19.0193 13.7345 18.614C12.9238 18.1327 11.4798 17.6133 9.4025 17.056C7.2745 16.4733 5.4758 15.6373 4.0065 14.548C2.3851 13.2307 1.5745 11.3687 1.5745 8.962C1.5745 6.5047 2.4485 4.5413 4.1965 3.072C5.9698 1.6027 8.07251 0.868 10.5045 0.868C12.6831 0.868 14.6085 1.3873 16.2805 2.426C17.9525 3.4393 19.2698 4.9213 20.2325 6.872L15.1025 9.874C14.1398 7.822 12.6071 6.796 10.5045 6.796C9.61781 6.796 8.92111 6.986 8.41451 7.366C7.90781 7.746 7.6545 8.2273 7.6545 8.81C7.6545 9.4433 7.95851 10.0133 8.56651 10.52C9.22511 11.0267 10.5171 11.5587 12.4425 12.116L14.9125 12.914C15.5458 13.1167 16.2805 13.4587 17.1165 13.94C18.0285 14.396 18.7125 14.89 19.1685 15.422C20.3845 16.7393 20.9925 18.386 20.9925 20.362C20.9925 22.87 20.0805 24.8713 18.2565 26.366C16.4325 27.81 14.0511 28.532 11.1125 28.532ZM34.4254 17.436V22.148H45.0654V28H28.3454V1.4H44.8754V7.252H34.4254V11.66H43.9254V17.436H34.4254ZM75.306 24.542C72.621 27.202 69.353 28.532 65.502 28.532C61.652 28.532 58.384 27.202 55.698 24.542C53.013 21.882 51.6703 18.6013 51.6703 14.7C51.6703 10.7987 53.013 7.518 55.698 4.858C58.384 2.198 61.652 0.868 65.502 0.868C69.353 0.868 72.621 2.198 75.306 4.858C77.992 7.518 79.334 10.7987 79.334 14.7C79.334 18.6013 77.992 21.882 75.306 24.542ZM57.75 14.7C57.75 17.0307 58.485 18.9307 59.954 20.4C61.424 21.8693 63.273 22.604 65.502 22.604C67.706 22.604 69.543 21.8693 71.012 20.4C72.507 18.9053 73.254 17.0053 73.254 14.7C73.254 12.3947 72.507 10.4947 71.012 9C69.543 7.5307 67.706 6.796 65.502 6.796C63.273 6.796 61.424 7.5307 59.954 9C58.485 10.4693 57.75 12.3693 57.75 14.7Z" fill="#14161B"/>
<path d="M100.86 10.896C100.02 11.736 98.992 12.156 97.776 12.156C96.56 12.156 95.528 11.736 94.68 10.896C93.84 10.048 93.42 9.016 93.42 7.8C93.42 6.584 93.84 5.556 94.68 4.716C95.528 3.868 96.56 3.444 97.776 3.444C98.992 3.444 100.02 3.868 100.86 4.716C101.708 5.556 102.132 6.584 102.132 7.8C102.132 9.016 101.708 10.048 100.86 10.896ZM95.652 9.96C96.236 10.528 96.944 10.812 97.776 10.812C98.616 10.812 99.32 10.528 99.888 9.96C100.464 9.384 100.752 8.664 100.752 7.8C100.752 6.936 100.464 6.22 99.888 5.652C99.32 5.076 98.616 4.788 97.776 4.788C96.936 4.788 96.228 5.076 95.652 5.652C95.084 6.22 94.8 6.936 94.8 7.8C94.8 8.656 95.084 9.376 95.652 9.96ZM107.391 3.6H110.487C111.279 3.6 111.939 3.864 112.467 4.392C113.003 4.92 113.271 5.576 113.271 6.36C113.271 7.136 113.003 7.792 112.467 8.328C111.939 8.856 111.279 9.12 110.487 9.12H108.771V12H107.391V3.6ZM108.771 7.824H110.487C110.895 7.824 111.231 7.688 111.495 7.416C111.759 7.136 111.891 6.784 111.891 6.36C111.891 5.936 111.759 5.588 111.495 5.316C111.231 5.036 110.895 4.896 110.487 4.896H108.771V7.824ZM117.633 3.6H123.753V4.92H121.389V12H120.009V4.92H117.633V3.6ZM128.774 12V3.6H130.154V12H128.774ZM142.396 3.6H143.872V12H142.492V6.012L139.936 10.236H139.768L137.212 6V12H135.832V3.6H137.32L139.852 7.8L142.396 3.6ZM149.547 12V3.6H150.927V12H149.547ZM98.94 19.74L95.172 25.68H99.036V27H93.456V25.86L97.224 19.92H93.54V18.6H98.94V19.74ZM111.198 27H109.71L109.122 25.308H105.546L104.958 27H103.458L106.506 18.6H108.162L111.198 27ZM107.334 20.22L106.002 24.012H108.666L107.334 20.22ZM114.844 18.6H120.964V19.92H118.6V27H117.22V19.92H114.844V18.6ZM125.985 27V18.6H127.365V27H125.985ZM140.063 25.896C139.223 26.736 138.195 27.156 136.979 27.156C135.763 27.156 134.731 26.736 133.883 25.896C133.043 25.048 132.623 24.016 132.623 22.8C132.623 21.584 133.043 20.556 133.883 19.716C134.731 18.868 135.763 18.444 136.979 18.444C138.195 18.444 139.223 18.868 140.063 19.716C140.911 20.556 141.335 21.584 141.335 22.8C141.335 24.016 140.911 25.048 140.063 25.896ZM134.855 24.96C135.439 25.528 136.147 25.812 136.979 25.812C137.819 25.812 138.523 25.528 139.091 24.96C139.667 24.384 139.955 23.664 139.955 22.8C139.955 21.936 139.667 21.22 139.091 20.652C138.523 20.076 137.819 19.788 136.979 19.788C136.139 19.788 135.431 20.076 134.855 20.652C134.287 21.22 134.003 21.936 134.003 22.8C134.003 23.656 134.287 24.376 134.855 24.96ZM151.634 24.3V18.6H153.014V27H151.934L147.974 21.3V27H146.594V18.6H147.674L151.634 24.3Z" fill="#14161B"/>
</svg>
