<svg width="182" height="33" fill="none" xmlns="http://www.w3.org/2000/svg"><path fill-rule="evenodd" clip-rule="evenodd" d="M5.686.001c-2.22 0-4.348 1.293-5.2 3.099C.091 3.88 0 4.743 0 5.579c.015 2.775.015 5.557.015 8.342 0 2.786 0 5.575.015 8.364.03 2.56 2.554 4.85 5.443 4.93 3.454.012 6.907.009 10.358.005 4.6-.004 9.197-.008 13.783.022 2.208 1.051 4.382 2.131 6.557 3.211 1.45.72 2.9 1.44 4.359 2.151-.41-.902-.821-1.798-1.232-2.694-.41-.896-.82-1.792-1.231-2.695 2.037 0 4.074.003 6.111.006 4.075.006 8.149.012 12.223-.006 2.889-.053 5.412-2.37 5.443-4.93V5.2c.03-1.455-.67-2.91-1.885-3.88C58.894.46 57.435-.026 55.975.001H5.685ZM28.278 3.58c-.696-1.012-2.451-1.285-3.36-.41-.494.547-.79 1.207-1.09 1.877l-.09.201c-1.482 3.473-2.057 7.22-2.511 10.912-1.06-2.434-1.786-5.005-2.33-7.575-.121-.575-.303-1.204-.757-1.641-.575-.547-1.543-.574-2.21-.192-.483.274-.816.739-1.088 1.204a2847.74 2847.74 0 0 1-5.448 9.38C8.304 13.425 7.548 9.46 6.883 5.467c-.091-.52-.212-1.094-.666-1.45-.636-.519-1.634-.464-2.39-.218-.939.328-1.332 1.367-1.12 2.215l.13.714c.893 4.905 1.79 9.828 3.32 14.6.09.227.171.463.254.7.306.88.624 1.793 1.41 2.418.665.465 1.543.054 2.058-.41 1.21-1.094 2.027-2.489 2.784-3.856a596.37 596.37 0 0 1 3.329-6.017c1.12 3.419 2.662 6.837 5.386 9.49.605.601 1.483 1.176 2.421.984.999-.219 1.453-1.23 1.392-2.078-.181-3.31.303-6.618.878-9.872.484-2.489 1.029-5.032 2.3-7.33a1.71 1.71 0 0 0-.091-1.777Zm12.316 3.31c-1.331-1.34-3.45-1.942-5.416-1.724-1.18.137-2.3.602-3.208 1.34-3.117 2.598-4.358 6.755-3.632 10.501.363 1.641 1.241 3.282 2.815 4.267 1.967 1.175 4.69 1.312 6.718.19 1.392-.737 2.36-1.968 3.117-3.226a11.391 11.391 0 0 0 1.513-7.329c-.212-1.45-.817-2.899-1.907-4.02Zm-7.08 3.882c.514-.71 1.119-1.504 2.057-1.777.666-.192 1.453.027 1.846.52.968 1.312 1.12 2.98.817 4.484-.303 1.34-.878 2.68-2.028 3.583-.514.41-1.18.793-1.906.683-.696-.109-1.12-.683-1.392-1.203-1.029-1.996-.666-4.43.605-6.29ZM56.21 6.78c-1.332-1.286-3.42-1.832-5.326-1.614-1.302.137-2.542.739-3.571 1.56-3.148 2.953-4.297 7.547-2.936 11.457.515 1.286 1.392 2.489 2.694 3.2 1.936 1.039 4.539 1.148 6.476.082 1.452-.766 2.45-2.024 3.208-3.309 1.27-2.133 1.755-4.649 1.482-7.056-.181-1.586-.817-3.144-2.027-4.32Zm-7.053 4.197c.538-.783 1.14-1.66 2.15-1.982.666-.192 1.453.027 1.816.492.878 1.149 1.12 2.598.938 3.938-.181 1.45-.696 2.926-1.876 3.965-.545.465-1.21.903-1.967.875-.696-.027-1.21-.547-1.483-1.093-1.06-1.942-.757-4.321.393-6.153l.03-.042Zm22.757-5.439c1.67-.32 3.431-.293 5.102.053v3.591c-1.367-.292-2.916-.558-4.222 0-1.579.692-2.46 2.262-2.46 3.751-.09 1.49.486 3.166 2.005 4.018 1.397.798 3.188.638 4.707.266v3.591c-2.035.506-4.252.452-6.226-.186-2.368-.772-4.251-2.58-4.98-4.709a8.772 8.772 0 0 1-.182-5.001c.698-2.634 3.25-4.79 6.256-5.374Zm12.33-.187c2.064-.212 4.312.08 5.982 1.224 1.61 1.09 2.399 2.873 2.703 4.576.273 1.889.212 3.857-.456 5.667-.577 1.543-1.761 2.98-3.462 3.697-1.73.719-3.766.772-5.618.4-1.7-.346-3.22-1.33-4.07-2.687-1.184-1.81-1.396-3.964-1.305-6.013.09-1.756.607-3.591 1.943-4.948 1.094-1.09 2.673-1.756 4.282-1.916Zm.637 3.432c-.88.187-1.397.958-1.61 1.676-.425 1.437-.364 2.927-.243 4.39.122.798.213 1.65.85 2.288.851.851 2.582.745 3.341-.133.517-.559.669-1.277.76-1.969.182-1.224.212-2.474 0-3.698-.152-.745-.395-1.516-1.003-2.075-.546-.479-1.366-.638-2.095-.479Zm80.993-3.192c1.762-.4 3.614-.346 5.375-.027.031 1.197 0 2.395.031 3.618-1.336-.292-2.824-.558-4.13-.053a4.11 4.11 0 0 0-2.551 3.432c-.182 1.596.303 3.405 1.913 4.336 1.397.852 3.219.692 4.768.293-.031 1.197.03 2.421-.031 3.618-2.156.479-4.524.426-6.559-.346-2.247-.851-4.009-2.66-4.647-4.735-.485-1.596-.546-3.299-.091-4.922.668-2.5 3.068-4.55 5.922-5.214Zm-70.242.106h5.861c.698 2.767 1.366 5.56 1.974 8.354.546-2.82 1.305-5.587 2.065-8.354h6.013c.789 5.028 1.548 10.056 2.308 15.058h-4.586c-.425-3.432-.79-6.89-1.245-10.322-.942 3.432-1.913 6.89-2.855 10.322h-3.128c-1.002-3.432-1.974-6.89-3.006-10.349-.395 3.432-.79 6.89-1.185 10.349h-4.403c.729-5.002 1.458-10.03 2.187-15.058Zm21.015 0h5.861c.698 2.767 1.366 5.56 1.974 8.354.577-2.794 1.306-5.587 2.065-8.354h5.982c.79 5.028 1.549 10.056 2.308 15.058h-4.585c-.425-3.432-.82-6.89-1.245-10.322-.942 3.432-1.883 6.89-2.855 10.322h-3.128c-1.002-3.458-2.004-6.89-3.006-10.349-.395 3.459-.79 6.89-1.185 10.349h-4.403c.759-5.002 1.488-10.03 2.217-15.058Zm19.527.053c3.128-.053 6.286 0 9.414-.026v3.219c-1.579.027-3.158 0-4.738 0v2.767h4.1v3.112h-4.1v2.767h4.768v3.22h-9.414c-.03-5.029.03-10.03-.03-15.059Zm10.75-.053c1.974 0 3.918-.026 5.892 0 1.852.053 3.826.453 5.193 1.596a3.75 3.75 0 0 1 1.184 4.097c-.395 1.144-1.366 2.075-2.581 2.581a756.43 756.43 0 0 0 3.705 6.784h-4.89c-1.275-2.315-2.52-4.63-3.826-6.917-.03 2.315 0 4.629 0 6.917h-4.646c-.031-5.002-.031-10.03-.031-15.058Zm4.647 2.9v3.591c.85-.053 1.761-.08 2.459-.532.82-.532.729-1.622.213-2.314-.638-.665-1.761-.665-2.672-.745Zm21.015-2.873h9.384v3.219h-4.768v2.767h4.099v3.112h-4.099v2.767H182v3.22h-9.414c-.031-5.056 0-10.084 0-15.085Z" fill="#14161B"/></svg>