<svg width="170" height="45" fill="none" xmlns="http://www.w3.org/2000/svg"><path fill-rule="evenodd" clip-rule="evenodd" d="M50.358 17.39A26.651 26.651 0 0 1 52 26.695 26.64 26.64 0 0 1 50.358 36l-9.032-3.831c.821-1.642 1.095-3.558 1.095-5.474 0-1.916-.274-3.832-1.095-5.474l9.032-3.831ZM36.674 2.884A27.82 27.82 0 0 1 49.81 16.021l-9.031 3.832v-.548l5.474-6.568-7.39 3.832c-1.642-1.916-3.558-3.558-6.02-4.653l3.83-9.032Zm-26 18.337c-.821 1.642-1.095 3.558-1.095 5.474 0 1.916.274 3.831 1.095 5.474L1.642 36A26.65 26.65 0 0 1 0 26.695C0 23.41.547 20.4 1.642 17.39l9.032 3.831Zm8.484-9.305c-3.558 1.642-6.295 4.379-7.937 7.937L2.19 16.02A27.821 27.821 0 0 1 15.326 2.884l3.832 9.032ZM26 .695c3.284 0 6.295.547 9.305 1.642l-3.831 9.031c-1.642-.82-3.558-1.094-5.474-1.094-1.916 0-3.832.274-5.474 1.095l-3.831-9.032A26.65 26.65 0 0 1 26 .695Z" fill="#14161B"/><path fill-rule="evenodd" clip-rule="evenodd" d="M42.695 15.474 36.4 23.137c-2.19 2.463-4.379 4.926-6.295 7.39-4.379 6.02-12.316-1.643-4.926-5.748l8.758-4.652 8.758-4.653ZM26 26.694c1.368 0 2.19 1.096 2.19 2.19 0 1.369-.822 2.464-2.19 2.464-1.368 0-2.19-1.095-2.19-2.464 0-1.094.822-2.19 2.19-2.19Z" fill="#14161B"/><path d="M70.379 17.013a.721.721 0 0 1-.598-.156.644.644 0 0 1-.234-.546 189.16 189.16 0 0 0-.091-3.614c-.06-1.508-.113-2.83-.156-3.965 0-.243.091-.468.273-.676.182-.208.399-.338.65-.39.251-.052.468-.009.65.13a.68.68 0 0 1 .273.572c.052.97.117 2.63.195 4.979 1.04-1.75 2.076-3.454 3.107-5.109.104-.173.243-.308.416-.403.182-.104.364-.156.546-.156.208 0 .386.065.533.195.147.121.221.537.221 1.248l.364 2.613.182 1.703c.113-.217.46-.949 1.04-2.197a52.954 52.954 0 0 1 1.469-2.964 1.2 1.2 0 0 1 .546-.533c.251-.121.485-.147.702-.078.225.07.377.217.455.442.078.217.056.446-.065.689a41.81 41.81 0 0 0-1.3 2.587 59.941 59.941 0 0 1-.897 1.911l-.793 1.547-.741 1.469c-.095.182-.23.334-.403.455-.173.121-.351.19-.533.208-.243.06-.455.039-.637-.065a.641.641 0 0 1-.325-.481 60.655 60.655 0 0 1-.559-4.147c-.026-.26-.07-.594-.13-1.001l-3.055 5.148c-.121.2-.286.355-.494.468-.2.104-.403.143-.611.117Zm16.592 0c-1.283 0-3.03-.013-5.24-.039a.693.693 0 0 1-.441-.143.777.777 0 0 1-.247-.377.774.774 0 0 1-.04-.507c.07-.303.326-1.525.768-3.666.32-1.56.62-2.786.897-3.679.034-.113.082-.217.143-.312.104-.173.238-.312.403-.416.173-.113.36-.173.559-.182a123.97 123.97 0 0 1 2.56 0c1.075 0 1.93-.004 2.562-.013.251 0 .446.087.585.26.138.173.182.386.13.637a1.159 1.159 0 0 1-.39.637c-.2.173-.425.26-.676.26h-2.171a88.15 88.15 0 0 0-2.171 0c-.139.529-.29 1.153-.455 1.872.416-.009 1.698-.013 3.848-.013.251 0 .446.087.585.26.147.173.195.386.143.637a1.135 1.135 0 0 1-.403.637c-.217.173-.45.26-.702.26-2.158 0-3.437.004-3.835.013-.19.97-.334 1.655-.43 2.054 1.76.017 3.23.026 4.408.026.251 0 .442.087.572.26.138.173.182.386.13.637a1.08 1.08 0 0 1-.403.637c-.208.173-.438.26-.69.26Zm5.795.039c-.173 0-.476-.009-.91-.026l-1.066-.052a.337.337 0 0 1-.104.013.798.798 0 0 1-.403-.104c-.234-.13-.35-.342-.35-.637 0-.087.004-.152.012-.195.009-.026.03-.087.065-.182l.481-2.171c.234-1.057.416-1.95.546-2.678.139-.737.256-1.465.351-2.184a1.14 1.14 0 0 1 .312-.637c.182-.19.39-.308.624-.351.13-.078.286-.126.468-.143l1.586-.052c1.222 0 2.132.204 2.73.611.598.399.897.966.897 1.703 0 .45-.121.867-.364 1.248-.234.373-.507.615-.819.728.416.173.71.399.884.676.182.277.273.615.273 1.014 0 .537-.117 1.001-.35 1.391-.26.425-.672.815-1.236 1.17-.85.511-1.885.793-3.107.845a7.456 7.456 0 0 1-.52.013Zm.82-1.794c.51-.026.914-.065 1.208-.117a2.32 2.32 0 0 0 .793-.286c.226-.139.373-.269.442-.39.078-.13.113-.312.104-.546-.017-.416-.364-.663-1.04-.741a10.43 10.43 0 0 0-1.26-.039l-1.457-.013-.429 2.093a1.9 1.9 0 0 0 .208.013c.06 0 .117.004.17.013.64.017 1.06.022 1.26.013Zm.61-3.861c.564 0 1.045-.104 1.443-.312.347-.19.52-.425.52-.702 0-.251-.164-.455-.494-.611-.32-.165-.78-.247-1.378-.247-.476 0-.875.009-1.196.026l-.09.546-.209 1.209c.512.06.98.091 1.404.091Zm12.347 5.707c-1.023 0-1.79-.217-2.301-.65-.512-.433-.767-1.001-.767-1.703 0-.511.108-.893.325-1.144.225-.251.489-.377.793-.377.199 0 .372.06.52.182.147.113.221.277.221.494 0 .017-.013.182-.039.494l-.026.26c0 .2.121.368.364.507.251.139.615.208 1.092.208.303 0 .593-.052.871-.156.286-.104.515-.243.689-.416.173-.173.26-.355.26-.546a.64.64 0 0 0-.195-.442c-.122-.139-.338-.273-.65-.403l-.507-.195-.481-.169c-.174-.07-.356-.143-.546-.221-1.3-.529-1.95-1.304-1.95-2.327 0-.511.169-.992.507-1.443.338-.45.784-.81 1.339-1.079a4.002 4.002 0 0 1 1.768-.403c.918 0 1.668.221 2.249.663.58.442.871 1.062.871 1.859 0 .425-.091.754-.273.988a.889.889 0 0 1-.728.338c-.269 0-.486-.07-.65-.208a.71.71 0 0 1-.234-.559c0-.225-.005-.381-.013-.468a.513.513 0 0 0-.117-.273c-.122-.156-.317-.29-.585-.403a2.302 2.302 0 0 0-.923-.195c-.425 0-.759.087-1.001.26-.243.173-.364.377-.364.611a.62.62 0 0 0 .273.533c.19.13.546.303 1.066.52.138.052.242.095.312.13.502.19.927.373 1.274.546.494.243.853.52 1.079.832.234.312.351.71.351 1.196 0 .59-.195 1.127-.585 1.612a3.988 3.988 0 0 1-1.482 1.131 4.262 4.262 0 0 1-1.807.416Zm7.264-.923a1.14 1.14 0 0 1-.403.65c-.217.173-.451.26-.702.26-.252 0-.447-.087-.585-.26-.139-.182-.182-.399-.13-.65.052-.251.307-1.512.767-3.783.468-2.27.745-3.532.832-3.783.06-.251.199-.46.416-.624a1.1 1.1 0 0 1 .702-.26c.043 0 .086.004.13.013a.216.216 0 0 0 .065-.013c1.092-.173 1.932-.243 2.522-.208 1.17.078 1.976.49 2.418 1.235.346.572.455 1.183.325 1.833a2.883 2.883 0 0 1-.949 1.638 4.724 4.724 0 0 1-1.469.871 5.378 5.378 0 0 1-1.625.351 6.268 6.268 0 0 1-.572 0 15.025 15.025 0 0 1-.702-.052 6.433 6.433 0 0 1-.468-.052c-.26 1.309-.451 2.253-.572 2.834Zm2.613-4.55c.32-.009.637-.07.949-.182.312-.121.554-.264.728-.429a.934.934 0 0 0 .182-.208c.043-.07.065-.195.065-.377s-.048-.36-.143-.533c-.208-.338-.633-.524-1.274-.559-.434-.026-1.006.013-1.716.117-.13.58-.282 1.27-.455 2.067h.013l.598.065c.216.017.407.03.572.039.164.009.325.009.481 0Zm10.312 5.382c-1.283 0-3.029-.013-5.239-.039a.692.692 0 0 1-.442-.143.77.77 0 0 1-.247-.377.766.766 0 0 1-.039-.507c.069-.303.325-1.525.767-3.666.32-1.56.619-2.786.897-3.679.034-.113.082-.217.143-.312.104-.173.238-.312.403-.416.173-.113.359-.173.559-.182.632-.009 1.486-.009 2.561 0 1.074 0 1.928-.004 2.561-.013.251 0 .446.087.585.26.138.173.182.386.13.637a1.159 1.159 0 0 1-.39.637c-.2.173-.425.26-.676.26h-2.171a88.148 88.148 0 0 0-2.171 0 59.372 59.372 0 0 0-.455 1.872 300.32 300.32 0 0 1 3.848-.013c.251 0 .446.087.585.26.147.173.195.386.143.637a1.138 1.138 0 0 1-.403.637c-.217.173-.451.26-.702.26-2.158 0-3.437.004-3.835.013a61.15 61.15 0 0 1-.429 2.054c1.759.017 3.228.026 4.407.026.251 0 .442.087.572.26.138.173.182.386.13.637a1.084 1.084 0 0 1-.403.637c-.208.173-.438.26-.689.26Zm8.98 0c-1.283 0-3.029-.013-5.239-.039a.694.694 0 0 1-.442-.143.778.778 0 0 1-.247-.377.78.78 0 0 1-.039-.507c.069-.303.325-1.525.767-3.666.321-1.56.62-2.786.897-3.679.035-.113.082-.217.143-.312.104-.173.238-.312.403-.416.173-.113.36-.173.559-.182.633-.009 1.486-.009 2.561 0 1.075 0 1.928-.004 2.561-.013.251 0 .446.087.585.26.139.173.182.386.13.637a1.159 1.159 0 0 1-.39.637c-.199.173-.425.26-.676.26h-2.171a88.148 88.148 0 0 0-2.171 0c-.139.529-.29 1.153-.455 1.872.416-.009 1.699-.013 3.848-.013.251 0 .446.087.585.26.147.173.195.386.143.637a1.133 1.133 0 0 1-.403.637c-.217.173-.451.26-.702.26-2.158 0-3.436.004-3.835.013a61.15 61.15 0 0 1-.429 2.054c1.759.017 3.228.026 4.407.026.251 0 .442.087.572.26.139.173.182.386.13.637a1.079 1.079 0 0 1-.403.637c-.208.173-.438.26-.689.26Zm3.689-.026a.716.716 0 0 1-.559-.273c-.138-.173-.182-.386-.13-.637l.78-3.744a66.31 66.31 0 0 1 .819-3.627c.061-.234.2-.438.416-.611.226-.173.464-.256.715-.247.139-.035.395-.065.767-.091.373-.035.78-.052 1.222-.052 1.162 0 2.089.29 2.782.871.702.572 1.053 1.408 1.053 2.509 0 .84-.208 1.66-.624 2.457a7.706 7.706 0 0 1-1.586 2.093 4.846 4.846 0 0 1-1.781 1.053 6.609 6.609 0 0 1-2.002.312c-1.014 0-1.638-.004-1.872-.013Zm1.3-1.703c.512 0 .85-.004 1.014-.013.659-.035 1.196-.152 1.612-.351.416-.2.789-.507 1.118-.923.338-.433.59-.88.754-1.339a3.85 3.85 0 0 0 .247-1.3c0-.667-.199-1.157-.598-1.469-.39-.32-1.035-.481-1.937-.481a14 14 0 0 0-.988.039l-.416 1.898-.468 2.301c-.13.65-.242 1.196-.338 1.638ZM72.732 32.987c-.78 0-1.482-.156-2.106-.468a3.65 3.65 0 0 1-1.456-1.352c-.355-.59-.533-1.265-.533-2.028 0-.997.243-1.92.728-2.769a5.616 5.616 0 0 1 1.989-2.041 5.225 5.225 0 0 1 2.73-.754c.225 0 .39.009.494.026.104.017.264.06.481.13l.325.104c.165.052.334.108.507.169.173.06.32.13.442.208.494.338.88.797 1.157 1.378.277.572.416 1.218.416 1.937a5.32 5.32 0 0 1-.715 2.665 5.612 5.612 0 0 1-1.898 2.028 4.618 4.618 0 0 1-2.561.767Zm.299-1.755c.58 0 1.1-.156 1.56-.468a3.3 3.3 0 0 0 1.092-1.248c.269-.52.403-1.066.403-1.638 0-.407-.095-.832-.286-1.274-.182-.442-.412-.754-.689-.936-.104-.07-.295-.134-.572-.195a6.121 6.121 0 0 0-.195-.052 1.64 1.64 0 0 0-.221-.065 7.67 7.67 0 0 0-.572-.026c-.546 0-1.057.165-1.534.494-.477.32-.854.75-1.131 1.287a3.663 3.663 0 0 0-.416 1.703c0 .789.221 1.391.663 1.807.45.407 1.083.611 1.898.611Zm7.748.949a1.137 1.137 0 0 1-.403.65c-.217.173-.45.26-.702.26-.251 0-.446-.087-.585-.26a.77.77 0 0 1-.13-.65c.052-.251.308-1.512.767-3.783.468-2.27.746-3.532.832-3.783.06-.251.2-.46.416-.624.217-.173.45-.26.702-.26.043 0 .087.004.13.013a.213.213 0 0 0 .065-.013c1.092-.173 1.933-.243 2.522-.208 1.17.078 1.976.49 2.418 1.235a2.48 2.48 0 0 1 .325 1.833 2.88 2.88 0 0 1-.949 1.638 4.713 4.713 0 0 1-1.469.871 5.372 5.372 0 0 1-1.625.351 6.268 6.268 0 0 1-.572 0c-.19-.009-.424-.026-.702-.052a6.55 6.55 0 0 1-.468-.052 332.38 332.38 0 0 1-.572 2.834Zm2.613-4.55c.32-.009.637-.07.95-.182.311-.121.554-.264.727-.429a.908.908 0 0 0 .182-.208c.043-.07.065-.195.065-.377s-.047-.36-.143-.533c-.208-.338-.633-.524-1.274-.559-.433-.026-1.005.013-1.716.117-.13.58-.282 1.27-.455 2.067h.013l.598.065c.217.017.407.03.572.039.165.009.325.009.481 0Zm7.868 4.472c-.06.251-.2.464-.416.637-.208.173-.438.26-.689.26-.251-.009-.446-.1-.585-.273-.138-.182-.177-.399-.117-.65.06-.269.316-1.495.767-3.679a54.42 54.42 0 0 1 .663-2.925c-.693.009-1.278.013-1.755.013-.251 0-.45-.082-.598-.247-.139-.165-.186-.373-.143-.624.052-.251.182-.46.39-.624.217-.173.45-.26.702-.26.555 0 1.474-.004 2.756-.013 1.283-.009 2.201-.013 2.756-.013.252 0 .447.082.585.247.148.156.195.36.143.611a1.069 1.069 0 0 1-.39.637c-.208.173-.433.26-.676.26-.546 0-1.196.004-1.95.013a57.182 57.182 0 0 0-.663 2.912c-.45 2.21-.71 3.45-.78 3.718Zm4.753.936c-.251 0-.45-.082-.598-.247-.147-.173-.2-.386-.156-.637a1.19 1.19 0 0 1 .351-.598c.182-.182.381-.29.598-.325.33-1.508.732-3.419 1.21-5.733a.688.688 0 0 1-.456-.312c-.104-.165-.13-.36-.078-.585a1.08 1.08 0 0 1 .403-.637c.217-.173.45-.26.702-.26l1.47.013c.25 0 .441.091.571.273.139.182.182.399.13.65a1.034 1.034 0 0 1-.338.572 1.176 1.176 0 0 1-.598.312 344.43 344.43 0 0 1-1.183 5.668.652.652 0 0 1 .468.299.762.762 0 0 1 .117.572 1.162 1.162 0 0 1-.39.65 1.083 1.083 0 0 1-.689.286l-1.534.039Zm13.861-.91c-.06.251-.203.464-.429.637a1.04 1.04 0 0 1-.702.247.716.716 0 0 1-.572-.286c-.138-.182-.173-.399-.104-.65.13-.563.473-2.227 1.027-4.992a55.065 55.065 0 0 0-2.444 2.587c-.19.208-.416.338-.676.39-.251.043-.463-.004-.637-.143a.15.15 0 0 1-.052-.052.729.729 0 0 1-.208-.221l-1.456-2.522c0 .017-.177.85-.533 2.496-.346 1.638-.524 2.461-.533 2.47a1.135 1.135 0 0 1-.403.65 1.05 1.05 0 0 1-.689.26.746.746 0 0 1-.598-.26.77.77 0 0 1-.13-.65l.39-1.833c.191-.858.334-1.521.429-1.989.104-.468.221-1.049.351-1.742.113-.615.221-1.252.325-1.911.035-.251.152-.472.351-.663a1.13 1.13 0 0 1 .702-.312.769.769 0 0 1 .351.052.645.645 0 0 1 .507.351l2.119 3.627a50.358 50.358 0 0 1 3.601-3.51c.252-.312.551-.464.897-.455.252.009.442.104.572.286.139.182.178.399.117.65-.199.823-.468 2.084-.806 3.783-.329 1.69-.585 2.925-.767 3.705Zm2.792.91c-.251 0-.45-.082-.598-.247-.147-.173-.199-.386-.156-.637.052-.225.169-.425.351-.598.182-.182.382-.29.598-.325.33-1.508.733-3.419 1.209-5.733a.688.688 0 0 1-.455-.312c-.104-.165-.13-.36-.078-.585.052-.251.187-.464.403-.637.217-.173.451-.26.702-.26l1.469.013c.252 0 .442.091.572.273.139.182.182.399.13.65a1.034 1.034 0 0 1-.338.572 1.172 1.172 0 0 1-.598.312c-.459 2.28-.853 4.169-1.183 5.668a.652.652 0 0 1 .468.299.76.76 0 0 1 .117.572 1.162 1.162 0 0 1-.39.65 1.081 1.081 0 0 1-.689.286l-1.534.039Zm7.427-.039c-1.179 0-2.145-.017-2.899-.052a.63.63 0 0 1-.533-.286c-.122-.182-.152-.394-.091-.637.06-.243.203-.45.429-.624.303-.277.819-.797 1.547-1.56 2.634-2.41 4.138-3.857 4.511-4.342-1.89.035-3.263.022-4.121-.039-.243-.017-.425-.117-.546-.299-.113-.182-.135-.399-.065-.65.069-.251.208-.455.416-.611a.976.976 0 0 1 .676-.221c.563.035 1.148.056 1.755.065.615.009 1.317.004 2.106-.013a90.382 90.382 0 0 1 1.781-.026c.234 0 .416.087.546.26.138.173.182.381.13.624-.052.225-.161.42-.325.585a10.737 10.737 0 0 1-1.3 1.638c-.425.433-1.894 1.794-4.407 4.082l-.325.325c.286 0 .632.009 1.04.026a222.4 222.4 0 0 1 3.003-.052c.234 0 .416.087.546.26.138.173.182.381.13.624a1.097 1.097 0 0 1-.39.611 1.02 1.02 0 0 1-.663.26c-.321 0-1.305.017-2.951.052Zm4.805-.533a1.128 1.128 0 0 1-.026-.195c0-.165.052-.33.156-.494l4.511-7.371c.295-.477.65-.715 1.066-.715.243 0 .438.065.585.195a.85.85 0 0 1 .286.52l.364 2.21.429 2.795.377 2.34a1.01 1.01 0 0 1-.091.624c-.086.19-.212.342-.377.455a.812.812 0 0 1-.481.169c-.433 0-.689-.186-.767-.559l-.312-1.976-2.886.065-1.131 1.937c-.112.173-.26.312-.442.416a1.093 1.093 0 0 1-.533.143.75.75 0 0 1-.455-.143.677.677 0 0 1-.273-.416Zm5.434-3.731-.26-1.885-1.235 1.911 1.495-.026Zm6.267 3.367a1.146 1.146 0 0 1-.416.637c-.208.173-.438.26-.689.26-.251-.009-.446-.1-.585-.273-.139-.182-.178-.399-.117-.65.061-.269.316-1.495.767-3.679.225-1.118.446-2.093.663-2.925-.693.009-1.278.013-1.755.013-.251 0-.451-.082-.598-.247-.139-.165-.186-.373-.143-.624.052-.251.182-.46.39-.624.217-.173.451-.26.702-.26.555 0 1.473-.004 2.756-.013 1.283-.009 2.201-.013 2.756-.013.251 0 .446.082.585.247.147.156.195.36.143.611a1.065 1.065 0 0 1-.39.637c-.208.173-.433.26-.676.26-.546 0-1.196.004-1.95.013a57.182 57.182 0 0 0-.663 2.912c-.451 2.21-.711 3.45-.78 3.718Zm4.753.936c-.251 0-.451-.082-.598-.247-.147-.173-.199-.386-.156-.637.052-.225.169-.425.351-.598.182-.182.381-.29.598-.325.329-1.508.732-3.419 1.209-5.733a.688.688 0 0 1-.455-.312c-.104-.165-.13-.36-.078-.585.052-.251.186-.464.403-.637.217-.173.451-.26.702-.26l1.469.013c.251 0 .442.091.572.273.139.182.182.399.13.65a1.034 1.034 0 0 1-.338.572 1.176 1.176 0 0 1-.598.312 344.43 344.43 0 0 1-1.183 5.668.652.652 0 0 1 .468.299.76.76 0 0 1 .117.572 1.162 1.162 0 0 1-.39.65 1.083 1.083 0 0 1-.689.286l-1.534.039Zm8.908-.052c-.78 0-1.482-.156-2.106-.468a3.657 3.657 0 0 1-1.456-1.352c-.355-.59-.533-1.265-.533-2.028 0-.997.243-1.92.728-2.769a5.616 5.616 0 0 1 1.989-2.041 5.227 5.227 0 0 1 2.73-.754c.226 0 .39.009.494.026.104.017.265.06.481.13l.325.104c.165.052.334.108.507.169.174.06.321.13.442.208.494.338.88.797 1.157 1.378.278.572.416 1.218.416 1.937a5.32 5.32 0 0 1-.715 2.665 5.606 5.606 0 0 1-1.898 2.028 4.616 4.616 0 0 1-2.561.767Zm.299-1.755a2.71 2.71 0 0 0 1.56-.468 3.3 3.3 0 0 0 1.092-1.248c.269-.52.403-1.066.403-1.638 0-.407-.095-.832-.286-1.274-.182-.442-.411-.754-.689-.936-.104-.07-.294-.134-.572-.195a5.263 5.263 0 0 0-.195-.052 1.626 1.626 0 0 0-.221-.065 7.662 7.662 0 0 0-.572-.026 2.65 2.65 0 0 0-1.534.494c-.476.32-.853.75-1.131 1.287a3.667 3.667 0 0 0-.416 1.703c0 .789.221 1.391.663 1.807.451.407 1.084.611 1.898.611Zm12.624 1.716c-.347.06-.607-.043-.78-.312-.434-.685-.949-1.699-1.547-3.042-.668-1.36-1.153-2.284-1.456-2.769-.061.347-.2 1.118-.416 2.314a88.573 88.573 0 0 1-.585 2.964 1.14 1.14 0 0 1-.403.65c-.217.173-.451.26-.702.26-.252 0-.447-.087-.585-.26-.139-.182-.182-.399-.13-.65.164-.763.403-1.993.715-3.692.312-1.707.58-2.999.806-3.874a1.14 1.14 0 0 1 .416-.637c.225-.173.459-.256.702-.247.121.009.234.035.338.078a.665.665 0 0 1 .364.286l.533.871c.251.39.437.685.559.884.372.503.892 1.43 1.56 2.782l.442.897c.45-2.01.801-3.644 1.053-4.901.052-.251.182-.464.39-.637.216-.182.45-.273.702-.273.251-.009.446.074.585.247.138.173.186.386.143.637a696.574 696.574 0 0 1-1.638 7.527c-.061.243-.191.45-.39.624-.2.165-.425.256-.676.273Z" fill="#14161B"/></svg>