<svg width="122" height="38" fill="none" xmlns="http://www.w3.org/2000/svg"><path d="M47.933 7.747v18.17l2.655.017v-8.656h6.405v-2.284h-6.405v-4.962h8.33V7.747H47.933Zm15.769 3.695c.952 0 1.743-.678 1.743-1.535 0-.857-.77-1.535-1.743-1.535-.953 0-1.744.678-1.744 1.535 0 .857.77 1.535 1.744 1.535Zm-1.358 2.284v12.208h2.655V13.726h-2.655Zm12.505-.357c-3.527 0-5.98 2.624-5.98 5.747 0 3.124 2.453 5.747 5.98 5.747 1.621 0 2.939-.535 3.911-1.445v1.624c.02 2.017-1.803 3.694-4.114 3.712h-.04c-.852 0-1.683-.285-2.352-.696l-1.337 2.035c3.162 1.802 7.377 1 9.404-1.785.71-.982 1.094-2.106 1.094-3.266V13.744H78.76v1.089c-.972-.91-2.29-1.464-3.911-1.464Zm-3.324 5.747c0-1.945 1.682-3.462 3.628-3.462 1.945 0 3.607 1.535 3.607 3.462 0 1.946-1.682 3.445-3.607 3.445-1.946 0-3.628-1.517-3.628-3.445Zm19.457-3.462c-1.58.018-2.858 1.16-2.838 2.552v7.71H85.49V13.71h2.655v1.124c.811-.946 2.068-1.482 3.426-1.464 1.864 0 3.303.803 4.114 2.053.932-1.267 2.513-2.035 4.216-2.053 3.02 0 4.905 2.142 4.905 4.801v7.746h-2.635v-7.71c0-1.392-1.257-2.534-2.838-2.552-1.58.018-2.857 1.16-2.837 2.552v7.71H93.82v-7.71c0-1.392-1.256-2.534-2.837-2.552Zm27.97-.553c-1.217-1.125-2.919-1.75-4.682-1.732-3.953 0-6.75 2.945-6.75 6.443 0 3.516 2.797 6.443 6.75 6.443 1.763 0 3.445-.624 4.682-1.73v1.391h2.655V13.71h-2.655v1.39Zm-8.776 4.711c0-2.32 2.026-4.176 4.398-4.176 2.351.018 4.378 1.856 4.378 4.176 0 2.32-2.027 4.159-4.399 4.159-2.33.018-4.377-1.82-4.377-4.159Zm-95.57-.802c0-3.32 3.06-6.016 6.83-6.016s6.83 2.695 6.83 6.015-3.06 6.015-6.83 6.015-6.83-2.695-6.83-6.015ZM0 31.985c0-3.32 3.06-6.014 6.83-6.014h6.83v6.014c0 3.32-3.06 6.015-6.83 6.015S0 35.305 0 31.985ZM14.606.018v12.011h6.83c3.77 0 6.83-2.695 6.83-6.014 0-3.32-3.06-6.015-6.83-6.015h-6.83v.018ZM0 6.034c0 3.32 3.06 6.015 6.83 6.015h6.83V.037H6.83C3.06.02 0 2.715 0 6.034Zm0 12.975c0 3.32 3.06 6.014 6.83 6.014h6.83V13.012H6.83C3.06 12.994 0 15.689 0 19.009Z" fill="#14161B"/></svg>