<svg width="38" height="54" fill="none" xmlns="http://www.w3.org/2000/svg"><path d="M3.455 0H5.87v2.277H8.1V0h2.416v6.891H8.1V4.594H5.892v2.297H3.455V0ZM13.71 2.297h-2.133V0h6.693v2.297h-2.144v4.594H13.71V2.297ZM19.33 0h2.532l1.555 2.427L24.973 0h2.533v6.891h-2.417V3.476l-1.692 2.476-1.691-2.476V6.89H19.33V0Zm9.372 0h2.417v4.614h3.425v2.277h-5.842" fill="#14161B"/><path fill-rule="evenodd" clip-rule="evenodd" d="M3.456 49.123 0 10.428h38l-3.456 38.675-15.575 4.304-15.513-4.283ZM7.06 18.337h23.838l-.44 4.743H12.275l.44 4.858h17.313L28.718 42.5 19 45.19v.026L9.238 42.5l-.67-7.449h4.776l.335 3.792 5.31 1.418 5.3-1.418.554-6.163h-5.865v-.01H8.358L7.059 18.335Z" fill="#14161B"/></svg>